<!-- Copyright 2000-2021 JetBrains s.r.o. and contributors. Use of this source code is governed by the Apache 2.0 license that can be found in the LICENSE file. -->
<svg xmlns="http://www.w3.org/2000/svg" width="32" height="32" viewBox="0 0 16 16">
  <g fill="none" fill-rule="evenodd" transform="translate(1 2)">
    <path fill="#AFB1B3" d="M0,0 L14,0 L14,12 L0,12 L0,0 Z M1,3 L1,11 L13,11 L13,3 L1,3 Z"/>
    <polygon fill="#499C54" points="1.3 4 4.667 7 1.3 10"/>
  </g>
  <svg xmlns="http://www.w3.org/2000/svg" width="9px" height="18px"
       viewBox="-1150 0 2048 2048">
    <rect fill-opacity="0.6" x="1024" y="1024" width="0" height="0" rx="128" ry="128" fill="#40b6e0"></rect>
    <g transform="scale(0.81)">
      <path fill-opacity="1" transform="translate(62.49000000000001, 2027.04) rotate(180) scale(-1, 1)" fill="#40b6e0" d="M1217 1233h-635l-62 -322h578l-51 -260h-578l-127 -651h-295l291 1493h930z"></path><path fill-opacity="1" transform="translate(1295.49, 2027.04) rotate(180) scale(-1, 1)" fill="#40b6e0" d="M506 664q-192 80 -254 155t-62 201q0 220 161.5 360t418.5 140q103 0 200.5 -20.5t188.5 -61.5l-57 -285q-68 62 -159 93.5t-202 31.5q-118 0 -192 -56.5t-74 -144.5q0 -84 184 -167l7 -3l116 -51q146 -65 213.5 -156.5t67.5 -224.5q0 -230 -161 -367t-435 -137 q-110 0 -224.5 26t-238.5 79l59 305q97 -81 203 -123.5t213 -42.5q133 0 209 58.5t76 158.5q0 62 -35 107.5t-104 74.5z"></path></g>
  </svg>
</svg>